<svg width="60" height="60.5" version="1.1" viewBox="0 0 15.875 16.007" xmlns="http://www.w3.org/2000/svg">
 <path d="m2.8477 12.545c-0.99423-0.13681-1.7508-0.48287-2.2758-1.041-0.87036-0.9252-0.73852-2.2098 0.33544-3.2684 0.37194-0.36662 0.77234-0.64715 1.3048-0.91414 1.0179-0.51045 2.3205-0.77961 3.368-0.69595l0.36043 0.028788 0.01511-0.35657c0.02444-0.57684 0.1842-0.94629 0.60269-1.3937 0.72408-0.77407 2.096-1.3301 3.6068-1.4619 0.5205-0.045392 1.4706-0.020937 1.9534 0.05028 1.862 0.27465 3.296 1.1542 3.6584 2.2438 0.08672 0.26073 0.10995 0.62646 0.06523 1.0271-0.23853 2.137-1.8106 3.8174-3.9793 4.2534-0.50039 0.1006-1.4042 0.10116-1.901 0.0012-0.44499-0.08954-0.84937-0.2235-1.254-0.4154l-0.32556-0.15441-0.10686 0.13394c-0.98707 1.2371-2.8184 2.0191-4.699 2.0063-0.23874-0.0016-0.56663-0.02118-0.72864-0.04347zm1.8652-0.38348c1.6759-0.30727 3.0712-1.1867 3.5761-2.2539 0.54887-1.1602-0.0827-2.2635-1.5655-2.7348-2.0642-0.65608-4.9378 0.20977-6.0015 1.8083-0.82718 1.2432-0.27999 2.5003 1.3207 3.0342 0.27658 0.09225 0.53908 0.14884 1.0065 0.21697 0.23844 0.03475 1.3448-0.0123 1.6636-0.07075zm-3.1984-1.2011c-0.52531-0.06269-0.64704-0.11741-0.60792-0.27326 0.03269-0.13026 0.10519-0.14582 0.44244-0.09499 0.6158 0.09282 1.7536 0.04469 2.6614-0.11258 1.3868-0.24024 2.7662-0.71252 3.5408-1.2123 0.2762-0.1782 0.31302-0.19036 0.40127-0.13254 0.0954 0.06251 0.09483 0.18439-0.0013 0.27347-0.04094 0.03794-0.22581 0.15536-0.41083 0.26094-0.99711 0.56897-2.5336 1.0351-4.0726 1.2355-0.36684 0.04777-1.7013 0.08588-1.9534 0.05579zm-0.17914-1.2694c-0.12266-0.085914-0.09136-0.20404 0.10052-0.37941 0.19954-0.18237 0.38523-0.25445 0.65553-0.25445 0.2139 0 0.29125 0.045412 0.29125 0.17099 0 0.10773-0.11096 0.17008-0.30269 0.17008-0.19699 0-0.35402 0.072533-0.49646 0.22932-0.11317 0.12456-0.14816 0.13351-0.24815 0.063476zm4.4952-0.57805c-0.02046-0.020464-0.03721-0.075953-0.03721-0.12331 0-0.10894 0.07955-0.16249 0.34082-0.22943 0.34756-0.089039 0.68238-0.012544 0.68238 0.1559 0 0.13814-0.07676 0.17726-0.30603 0.15595-0.14554-0.013527-0.25083-0.00501-0.36059 0.02916-0.18688 0.058181-0.26986 0.061229-0.31936 0.011729zm-1.0812-0.98828c-0.07536-0.027877-0.11637-0.12444-0.0892-0.21004 0.02823-0.088944 0.16487-0.13653 0.43753-0.15238 0.27569-0.01602 0.35461 0.020295 0.35461 0.16317 0 0.12169-0.0784 0.17053-0.27372 0.17053-0.09695 0-0.21817 0.012015-0.26937 0.0267s-0.12314 0.015589-0.15985 0.00201zm-1.453-0.32151c-0.11381-0.11381-0.06816-0.19775 0.17347-0.31894 0.342-0.17154 0.82657-0.25104 0.99164-0.1627 0.10301 0.055128 0.13389 0.14812 0.07768 0.23391-0.04488 0.0685-0.07022 0.075435-0.27563 0.075435-0.24505 0-0.479 0.057391-0.70926 0.17399-0.08044 0.040731-0.15432 0.074057-0.16419 0.074057-0.0099 0-0.05203-0.03409-0.0937-0.075756zm8.5803 2.8683c1.4984-0.32221 2.761-1.3546 3.3205-2.715 0.14572-0.35432 0.14267-0.35877-0.09332-0.13637-0.63575 0.59917-1.6249 1.0267-2.8768 1.2433-0.35422 0.061299-0.51207 0.069843-1.3022 0.070488-0.72602 5.922e-4 -0.96485-0.010121-1.2402-0.055634-0.31506-0.052069-0.6747-0.12552-0.79375-0.1621-0.04182-0.012851-0.0525 0.025683-0.06801 0.24542-0.0211 0.29901-0.08553 0.57151-0.19212 0.81253l-0.0742 0.16779 0.12996 0.07538c0.34377 0.1994 1.0008 0.41844 1.4942 0.49812 0.40412 0.06526 1.2957 0.04219 1.696-0.04388zm-0.09919-1.8964c0.99173-0.094282 2.0346-0.4384 2.7102-0.89426 0.27533-0.18579 0.56439-0.44805 0.68388-0.62048 0.07891-0.11386 0.08555-0.14379 0.07095-0.31938-0.08716-1.0477-1.3327-1.9624-3.1191-2.2904-0.43497-0.07988-1.471-0.11197-1.9607-0.060732-1.2182 0.12746-2.2898 0.55329-2.9429 1.1695-0.31834 0.30031-0.53874 0.64119-0.60263 0.93207-0.01987 0.090482-0.01467 0.098028 0.08137 0.11795 0.05643 0.011708 0.22421 0.069322 0.37285 0.12803l0.27024 0.10674 0.1232-0.081527c0.27591-0.18259 0.59638-0.15501 0.81515 0.07015 0.13979 0.14387 0.17998 0.24458 0.17998 0.45095 0 0.12033-0.01632 0.17613-0.06742 0.23053l-0.06742 0.071762 0.06404 0.069763c0.09315 0.10148 0.24057 0.35743 0.30355 0.52703 0.061 0.16426 0.05249 0.1602 0.56917 0.27114 0.78173 0.16785 1.6071 0.20763 2.5157 0.12125zm-1.4222-0.5265c-0.19451-0.038227-0.40091-0.14611-0.42505-0.22217-0.02881-0.090771-0.02143-0.30762 0.01361-0.39977 0.01606-0.042231 0.0672-0.12196 0.11366-0.17717 0.32171-0.38233 0.94733-0.24804 1.0873 0.2334 0.07008 0.24108 0.02301 0.38748-0.15181 0.47211-0.11312 0.054762-0.42377 0.13422-0.48322 0.1236-0.01046-0.00187-0.07997-0.015375-0.15446-0.030015zm0.34361-0.33998c0.06333-0.01759 0.1232-0.045007 0.13304-0.060928 0.02581-0.04176-0.06785-0.20937-0.13796-0.24689-0.08657-0.046332-0.2567-0.039123-0.33268 0.014099-0.0797 0.055826-0.14528 0.22248-0.09884 0.25118 0.11402 0.07047 0.27824 0.086477 0.43643 0.042542zm2.2993 0.19429c-0.23871-0.085358-0.31038-0.14286-0.33019-0.26492-0.03766-0.23208 0.07394-0.47763 0.28417-0.62526 0.11658-0.081859 0.15934-0.093432 0.34483-0.093326 0.18569 9.3e-5 0.22828 0.011724 0.34603 0.094394 0.1837 0.12897 0.27823 0.30814 0.27823 0.52731 0 0.094949-0.01539 0.19118-0.0342 0.21384-0.06351 0.07653-0.3566 0.18033-0.54383 0.19261-0.12833 0.00841-0.23537-0.00544-0.34504-0.044655zm0.56475-0.35318c0.03405-0.034293 0.03304-0.05778-6e-3 -0.13798-0.10931-0.22484-0.41623-0.21874-0.52498 0.010444-0.02786 0.058708-0.04546 0.11193-0.03912 0.11828 0.08117 0.081171 0.49201 0.08784 0.57005 0.00925zm-1.9611 0.078569c-0.21063-0.074648-0.28964-0.16853-0.28884-0.34321 0.0029-0.63257 0.79458-0.87611 1.1596-0.35672 0.06954 0.098939 0.09465 0.17431 0.10479 0.31447 0.0122 0.1687 0.0063 0.1909-0.06996 0.26154-0.17765 0.16464-0.61994 0.22516-0.90561 0.12392zm0.5937-0.33278c0.05218-0.038154 0.05377-0.052359 0.01609-0.14334-0.08359-0.20181-0.38912-0.22963-0.5092-0.046377-0.10725 0.16369-0.03661 0.2297 0.24733 0.23113 0.11127 5.581e-4 0.21148-0.016324 0.24578-0.041408zm-3.1549 0.022119c-0.23395-0.080962-0.30178-0.16209-0.30178-0.36098 0-0.59656 0.74582-0.85586 1.1226-0.39031 0.11816 0.14599 0.17499 0.41318 0.11483 0.5399-0.10022 0.2111-0.6062 0.32541-0.93567 0.21139zm0.54942-0.32581c0.09309-0.042413 0.09631-0.06462 0.02656-0.18271-0.10332-0.17491-0.35111-0.19491-0.4743-0.038293-0.08191 0.10413-0.07908 0.19026 0.0074 0.22502 0.10029 0.040312 0.34805 0.038056 0.44038-0.00401zm0.9389-0.1201c-0.17332-0.04333-0.35701-0.1453-0.39728-0.22054-0.02003-0.03743-0.02947-0.13923-0.02165-0.23353 0.01752-0.21126 0.1407-0.39497 0.33414-0.49835 0.29408-0.15715 0.69781-0.037201 0.84704 0.25166 0.07649 0.14806 0.10299 0.38973 0.05298 0.48318-0.08417 0.15727-0.55443 0.28278-0.81524 0.21758zm0.38806-0.34165c0.14527-0.040344 0.15357-0.12087 0.02564-0.2488-0.12509-0.12509-0.28276-0.12509-0.40785 0-0.12265 0.12265-0.11909 0.20944 0.01014 0.24675 0.13741 0.039676 0.23466 0.040213 0.37207 0.00205zm2.3763 0.16711c-0.07862-0.026252-0.18164-0.07858-0.22892-0.11628-0.07591-0.060529-0.08579-0.088747-0.08442-0.24109 0.0019-0.20757 0.08679-0.39155 0.23178-0.50214 0.42779-0.32629 1.024-0.031974 1.024 0.50548 0 0.14411-0.01199 0.17894-0.08245 0.23955-0.17884 0.15383-0.5816 0.20744-0.86 0.11448zm0.52691-0.3239c0.08042-0.028036 0.09516-0.04666 0.07972-0.10077-0.0308-0.10794-0.19039-0.23691-0.29314-0.23691-0.10292 0-0.26234 0.12901-0.29328 0.23733-0.01519 0.053175-0.0015 0.073225 0.06734 0.098321 0.11736 0.042813 0.31969 0.043747 0.43937 0.00203zm-5.779 0.022027c-0.18065-0.057133-0.3153-0.1332-0.33731-0.19056-0.0393-0.10241-0.01759-0.32992 0.04278-0.44825 0.07832-0.15352 0.16825-0.24001 0.32554-0.31306 0.39893-0.18528 0.88069 0.13488 0.88299 0.58679 5.39e-4 0.10652-0.01743 0.15227-0.08724 0.22208-0.1619 0.1619-0.55306 0.22955-0.82676 0.14299zm0.47836-0.33257c0.0874-0.030468 0.09753-0.045154 0.08019-0.11627-0.02969-0.12177-0.11603-0.19261-0.25794-0.21164-0.11176-0.014991-0.13846-0.00566-0.22159 0.07747-0.11268 0.11268-0.12258 0.21402-0.02475 0.25335 0.09854 0.039607 0.30623 0.038186 0.4241-0.0029zm3.5724-0.1485c-0.2386-0.082394-0.29708-0.1518-0.29597-0.35123 0.0017-0.29751 0.18559-0.53535 0.4732-0.61189 0.40445-0.10764 0.77941 0.19397 0.77941 0.62693 0 0.15108-0.01077 0.18247-0.08178 0.23832-0.19566 0.15391-0.5861 0.19759-0.87486 0.097867zm0.54437-0.31416c0.07538-0.026278 0.09039-0.046437 0.07899-0.10607-0.01991-0.10417-0.13528-0.20198-0.26263-0.22265-0.09039-0.014668-0.12469-0.00271-0.20356 0.070991-0.13883 0.12973-0.15438 0.21443-0.04659 0.25375 0.11538 0.04209 0.31909 0.043957 0.43378 0.00398zm-3.2668 0.2172c-0.19643-0.038861-0.38085-0.14496-0.41768-0.24028-0.01785-0.046199-0.02433-0.14477-0.0144-0.21905 0.04114-0.30774 0.26635-0.53169 0.55908-0.55597 0.40465-0.033556 0.69711 0.23228 0.69881 0.63518 6.17e-4 0.14618-0.0088 0.16845-0.1013 0.23899-0.10147 0.077398-0.4118 0.1765-0.5324 0.17002-0.03479-0.00187-0.12124-0.01487-0.19212-0.028893zm0.36916-0.34141c0.14348-0.039846 0.15465-0.12545 0.03296-0.25247-0.15516-0.16195-0.44045-0.084085-0.49157 0.13417-0.01732 0.073945-8e-3 0.084562 0.0996 0.11307 0.15988 0.042368 0.22203 0.043274 0.35901 0.00523zm0.98443 0.13552c-0.21851-0.076309-0.31065-0.14423-0.34281-0.25269-0.06538-0.22048 0.05479-0.50775 0.27573-0.65914 0.09216-0.063147 0.14626-0.074719 0.34934-0.074719 0.26744 0 0.33419 0.032169 0.5052 0.24345 0.07733 0.095548 0.09562 0.14995 0.10619 0.31601 0.01507 0.23674-0.0066 0.27258-0.22702 0.37534-0.12113 0.056474-0.20587 0.071809-0.38757 0.070133-0.1279-0.00118-0.25347-0.00945-0.27905-0.018387zm0.45734-0.33558c0.08096-0.016295 0.10077-0.035309 0.10077-0.096742 0-0.042053-0.03425-0.11071-0.07611-0.15257-0.09047-0.090473-0.27455-0.10316-0.38404-0.026468-0.08722 0.06109-0.14396 0.19582-0.10069 0.23909 0.03551 0.035515 0.24469 0.079811 0.31279 0.066238 0.02558-0.0051 0.09186-0.018397 0.14728-0.029551zm-3.0792 1.8856c-0.04323-0.12292-0.20886-0.21081-0.33116-0.17573l-0.09675 0.027747 0.19768 0.1469c0.21174 0.15734 0.2853 0.15769 0.23023 0.00109zm-1.6622-1.1344c0.37378-0.72358 1.1667-1.3158 2.2269-1.6631 2.1171-0.69364 4.6798-0.3256 6.0944 0.87522 0.22615 0.19198 0.50074 0.54578 0.63497 0.81812l0.11831 0.24004 0.0095-0.16422c0.01247-0.21746-0.0376-0.44587-0.14984-0.68318-0.41267-0.87259-1.6623-1.5654-3.2858-1.8217-0.50238-0.079302-1.8502-0.080395-2.3409-0.0019-2.0853 0.33352-3.4572 1.3188-3.4572 2.483 0 0.10158 0.0057 0.17887 0.01257 0.17177 0.0069-0.00711 0.06863-0.12143 0.13714-0.25406z" fill="#4b1a00" stroke-width=".031006"/>
</svg>
