<svg width="60" height="60.5" version="1.1" viewBox="0 0 15.875 16.007" xmlns="http://www.w3.org/2000/svg">
 <path d="m3.2081 15.835c-0.72063-0.15932-1.2634-0.71757-1.4062-1.4463l-0.051691-0.26374-0.26374-0.051693c-1.016-0.19912-1.6585-1.1691-1.4457-2.1826 0.13322-0.63452 0.6367-1.1817 1.2542-1.3631 0.2781-0.08168 0.61092-0.09561 0.89742-0.03755 0.31204 0.06323 0.48633 0.1363 0.72582 0.30429l0.18497 0.12975 1.4564-1.4564-0.049808-0.3257c-0.065028-0.42522-0.044016-1.2282 0.046-1.7579 0.33038-1.9442 1.4391-4.2859 2.7158-5.7357 0.69352-0.78759 1.652-1.3403 2.7102-1.5628 0.34956-0.073499 0.4723-0.08426 0.97444-0.085434 0.47637-0.0010563 0.63459 0.010669 0.92627 0.068974 2.021 0.40399 3.5196 1.9052 3.9252 3.932 0.05652 0.28244 0.06847 0.4453 0.06736 0.91787-0.0012 0.50214-0.01193 0.62488-0.08543 0.97444-0.21908 1.042-0.75633 1.9858-1.522 2.6738-1.4262 1.2815-3.8124 2.4184-5.7764 2.7522-0.52964 0.09-1.3327 0.11103-1.7578 0.04603l-0.32556-0.04979-0.72252 0.72203c-0.39739 0.39712-0.72252 0.7307-0.72252 0.7413 0 0.01058 0.043334 0.0736 0.096297 0.14 0.32358 0.40566 0.45516 1.053 0.32029 1.5758-0.24468 0.94841-1.2201 1.5505-2.1711 1.3403zm0.85399-0.60167c0.34559-0.13357 0.60735-0.40486 0.74611-0.77327 0.05603-0.14877 0.065145-0.22699 0.055145-0.47324-0.01535-0.37801-0.098321-0.56745-0.37977-0.86712-0.33133-0.35278-0.35809-0.29547 0.57481-1.231l0.77891-0.78111-0.18112-0.10187c-0.23287-0.13098-0.65581-0.55392-0.78679-0.78679l-0.10187-0.18112-0.78111 0.77892c-0.74903 0.74693-0.78601 0.77892-0.90032 0.77892-0.1049 0-0.14622-0.02565-0.34424-0.21376-0.3042-0.28896-0.47891-0.35856-0.90014-0.35856-0.24873 0-0.34523 0.01381-0.48481 0.0694-0.50977 0.20301-0.84062 0.7318-0.7954 1.2712 0.059825 0.71359 0.59778 1.1881 1.347 1.1881 0.23687 0 0.26944 0.0073 0.33833 0.07622 0.068887 0.06889 0.076224 0.10145 0.076224 0.33833 0 0.53506 0.21576 0.92836 0.65407 1.1923 0.28545 0.17189 0.7503 0.20378 1.085 0.07443zm4.1262-4.4312c1.6622-0.24287 3.7451-1.1377 5.2084-2.2376 1.0229-0.76885 1.6034-1.6425 1.8509-2.7857 0.099355-0.45879 0.098548-1.2955-0.001707-1.7591-0.45595-2.1086-2.3228-3.5604-4.4606-3.4688-1.1073 0.047424-2.0898 0.4715-2.8683 1.2381-1.3013 1.2815-2.5519 3.8832-2.8478 5.9249-0.065412 0.45127-0.047912 1.3049 0.033105 1.6148 0.2151 0.82278 0.75417 1.3153 1.6149 1.4756 0.30634 0.05703 1.0737 0.05591 1.4711-0.0021zm5.5768-5.0277c-0.09431-0.094309-0.09661-0.19496-0.01001-0.43725 0.10132-0.28345 0.11388-0.71011 0.0306-1.0395-0.036381-0.14385-0.10798-0.35095-0.15912-0.46022-0.14568-0.31132-0.10911-0.49689 0.10869-0.55156 0.15902-0.039913 0.25715 0.038445 0.38794 0.30976 0.20659 0.42859 0.26282 0.68208 0.26253 1.1836-2.34e-4 0.39517-0.0081 0.45738-0.0868 0.6832-0.0476 0.13664-0.11594 0.27988-0.15186 0.31831-0.0925 0.098937-0.27981 0.095821-0.38198-0.00635z" fill="#4b1a00" stroke-width=".031054"/>
</svg>
