<svg width="25" height="25" version="1.1" viewBox="0 0 6.6146 6.6146" xmlns="http://www.w3.org/2000/svg">
 <path transform="scale(.26458)" d="m12.5 0a12.5 12.501 0 0 0-12.5 12.5 12.5 12.501 0 0 0 12.5 12.502 12.5 12.501 0 0 0 12.5-12.502 12.5 12.501 0 0 0-12.5-12.5zm2.666 5.5293v1.0645 1.0664l-0.62695 0.023438c-0.56017 0.020598-0.6476 0.040808-0.80859 0.18945-0.30971 0.28596-0.36328 0.51197-0.36328 1.5312v0.93555h1.2988c0.715 0 1.3008 0.020343 1.3008 0.044922 0 0.024604-0.18413 0.50434-0.41016 1.0664l-0.41211 1.0215h-0.88867-0.88867v3.5 3.5h-1.2656-1.2676l-0.017578-3.4824-0.015625-3.4844-0.88477-0.017578-0.88281-0.019531v-1.0645-1.0645h0.89648 0.89648l0.019531-1.4512c0.019805-1.415 0.025798-1.4578 0.20117-1.832 0.25144-0.53654 0.76322-1.0582 1.2715-1.293 0.40125-0.18534 0.45401-0.19165 1.6309-0.21289l1.2168-0.021484z" fill="#b39775" stroke-width="0"/>
</svg>
