<?xml version="1.0" encoding="UTF-8" standalone="no"?>
<svg
   width="25"
   height="25"
   version="1.1"
   viewBox="0 0 6.6146 6.6146"
   id="svg4"
   sodipodi:docname="instagram.svg"
   inkscape:version="1.1.1 (3bf5ae0d25, 2021-09-20)"
   xmlns:inkscape="http://www.inkscape.org/namespaces/inkscape"
   xmlns:sodipodi="http://sodipodi.sourceforge.net/DTD/sodipodi-0.dtd"
   xmlns="http://www.w3.org/2000/svg"
   xmlns:svg="http://www.w3.org/2000/svg">
  <defs
     id="defs8" />
  <sodipodi:namedview
     id="namedview6"
     pagecolor="#ffffff"
     bordercolor="#111111"
     borderopacity="1"
     inkscape:pageshadow="0"
     inkscape:pageopacity="0"
     inkscape:pagecheckerboard="1"
     showgrid="false"
     inkscape:zoom="19.12"
     inkscape:cx="2.2228033"
     inkscape:cy="16.710251"
     inkscape:window-width="1024"
     inkscape:window-height="705"
     inkscape:window-x="-8"
     inkscape:window-y="-8"
     inkscape:window-maximized="1"
     inkscape:current-layer="svg4" />
  <path
     d="m3.3073 0a3.3073 3.3073 0 0 0-3.3073 3.3073 3.3073 3.3073 0 0 0 3.3073 3.3073 3.3073 3.3073 0 0 0 3.3073-3.3073 3.3073 3.3073 0 0 0-3.3073-3.3073zm-1.1906 1.3193h2.3812l0.18138 0.086816c0.23828 0.11378 0.40006 0.27484 0.5209 0.51935l0.091467 0.185v2.3864l-0.091467 0.185c-0.11912 0.24103-0.27368 0.39555-0.5147 0.5147l-0.185 0.091467-1.157 0.00568c-1.0606 0.0050544-1.1671 0.0016704-1.2769-0.036687-0.30746-0.10737-0.51888-0.29574-0.65939-0.58756l-0.084232-0.17518v-2.3812l0.086816-0.18138c0.11532-0.24151 0.28352-0.41023 0.52503-0.52555zm0.068729 0.23358-0.154 0.075964c-0.18271 0.08995-0.32594 0.23618-0.41289 0.42168l-0.062529 0.13281v2.2412l0.062012 0.13074c0.10862 0.23165 0.30032 0.40149 0.54002 0.47749 0.077183 0.024474 0.33282 0.03006 1.1849 0.026355l1.0857-0.00465 0.154-0.075448c0.18266-0.089954 0.32648-0.23675 0.41341-0.4222l0.062012-0.13229v-2.2412l-0.062012-0.13281c-0.086957-0.1855-0.2307-0.33173-0.41341-0.42168l-0.154-0.075964h-1.1214zm2.1895 0.48111c0.027827 8.76e-5 0.056862 0.00754 0.085783 0.02377 0.18939 0.1063 0.12704 0.37052-0.087333 0.37052-0.063172 0-0.10414-0.016042-0.14004-0.05426-0.12421-0.13222-0.0086727-0.3405 0.14159-0.34003zm-1.0738 0.33125c0.55495-0.0091519 1.0317 0.52037 0.93018 1.0878-0.06997 0.39111-0.37141 0.70144-0.75189 0.7736-0.15055 0.028552-0.23444 0.026212-0.38241-0.0098187-0.27429-0.06679-0.5094-0.25206-0.62839-0.49506-0.27991-0.57166 0.05622-1.2253 0.68988-1.342 0.047847-0.00882 0.095597-0.013695 0.14263-0.01447zm0.0062 0.24495c-0.21762 0-0.43524 0.097222-0.56792 0.29145-0.30086 0.4404-0.049117 1.009 0.48628 1.0981 0.071192 0.011859 0.19384-3e-3 0.30334-0.036174 0.434-0.13148 0.61104-0.67431 0.34623-1.062-0.13269-0.19423-0.3503-0.29145-0.56792-0.29145z"
     fill="#ff0"
     stroke-linejoin="round"
     stroke-width="1.7198"
     id="path2"
     style="fill:#b39775;fill-opacity:1" />
</svg>
