<svg width="60" height="60.5" version="1.1" viewBox="0 0 15.875 16.007" xmlns="http://www.w3.org/2000/svg">
 <g transform="translate(.00083919 3.6968)">
  <path d="m7.3794 8.5566c-1.0216-0.063164-2.2911-0.24435-3.0448-0.43459-0.98472-0.24853-1.9291-0.63156-2.5047-1.0159-0.29709-0.19837-0.69329-0.57336-0.81999-0.77612-0.046325-0.07413-0.22691-0.27644-0.4013-0.44959-0.23622-0.23453-0.34616-0.37098-0.43112-0.5351-0.29147-0.563-0.2117-1.1185 0.23817-1.6586l0.1704-0.20457-0.1199-0.22951c-0.78614-1.5048 0.57441-2.5991 3.7352-3.0044 2.1293-0.27299 5.0337-0.27858 7.3174-0.014072 2.1805 0.25255 3.4703 0.82683 3.7558 1.6723 0.0349 0.10333 0.05128 0.24726 0.04939 0.43408l-0.0028 0.2795 0.15421 0.18604c0.54277 0.65481 0.5215 1.3913-0.05869 2.0325l-0.17427 0.19257 0.06963 0.11221c0.54266 0.87449 0.42934 1.6789-0.31558 2.2402-1.009 0.76032-3.0106 1.1472-6.1442 1.1877-0.56276 0.00726-1.2255 6.946e-4 -1.4728-0.014593zm3.1316-0.37019c1.9062-0.13816 3.2256-0.4325 4.0481-0.90308 0.3089-0.17674 0.60269-0.48381 0.69248-0.72378 0.11175-0.29869 0.074832-0.6863-0.097618-1.0248l-0.0631-0.12388-0.06525 0.092255c-0.1219 0.17234-0.4366 0.48687-0.63886 0.63851-1.6301 1.2221-5.2799 1.8527-8.6813 1.4998-1.2974-0.13458-2.6475-0.44992-3.628-0.84735-0.28427-0.11523-0.22179-0.051367 0.1855 0.18959 0.67305 0.39819 1.6099 0.71574 2.8066 0.95125 0.79464 0.1564 1.3342 0.22331 2.3719 0.29419 0.32076 0.021908 2.6193-0.010073 3.0696-0.04271zm3.0386-1.055c-0.03411-0.034107-0.06201-0.079836-0.06201-0.10162 0-0.081121 0.10595-0.18629 0.25988-0.25796 0.26004-0.12108 0.55131-0.087842 0.74866 0.085433 0.12019 0.10553 0.13816 0.20594 0.05097 0.28485-0.07745 0.070088-0.13025 0.064627-0.25336-0.0262-0.07247-0.053466-0.14514-0.077515-0.23424-0.077515-0.08666 0-0.16677 0.025514-0.2434 0.077515-0.13811 0.093726-0.18552 0.096484-0.2665 0.015503zm-4.4648 0.21628c1.6122-0.12339 3.0373-0.4406 4.1079-0.91435 0.44996-0.19912 0.70717-0.34193 0.97641-0.54215 0.18582-0.13819 0.46058-0.39773 0.38822-0.36672-0.017053 0.0073081-0.20541 0.098463-0.41858 0.20257-1.0426 0.50916-2.5809 0.89179-4.1548 1.0334-1.0404 0.093622-2.6443 0.086253-3.6897-0.016952-0.86075-0.084975-1.8169-0.26603-2.6355-0.49904-0.43357-0.12342-1.2817-0.45709-1.5658-0.61599-0.77728-0.43481-1.2646-0.91767-1.4347-1.4216-0.032889-0.097421-0.066808-0.18414-0.075375-0.19271-0.0085674-0.0085672-0.062974 0.078878-0.1209 0.19432-0.095102 0.18952-0.10533 0.23555-0.10533 0.4741 0 0.23662 0.010759 0.28606 0.10306 0.47355 0.47215 0.95908 2.3769 1.7892 4.8114 2.0969 0.42188 0.053321 1.0205 0.10306 1.6743 0.13912 0.3304 0.018223 1.6894-0.010022 2.1394-0.044466zm0.062012-0.86785c2.3836-0.13056 4.3182-0.62238 5.4708-1.3908 0.33938-0.22625 0.67178-0.571 0.79549-0.82504 0.094825-0.19474 0.10533-0.24282 0.10496-0.48059-3.5e-4 -0.22362-0.013256-0.29039-0.084034-0.43474-0.045992-0.093793-0.12417-0.21897-0.17374-0.27817l-0.09011-0.10764-0.06508 0.12757c-0.16734 0.328-0.65574 0.86387-1.0593 1.1622l-0.0928 0.068608 0.11056 0.10127c0.13079 0.1198 0.13823 0.24986 0.01772 0.30962-0.06208 0.030783-0.09876 0.022566-0.24675-0.055283-0.20203-0.10627-0.25039-0.10117-0.50455 0.053162-0.32858 0.19953-1.0688 0.53754-1.5825 0.72264-1.7747 0.63947-3.8302 0.83673-5.8254 0.55902-1.4146-0.1969-2.6538-0.58576-3.6929-1.1588-0.38128-0.21028-0.83404-0.52803-1.109-0.77833l-0.19757-0.17983 0.022849 0.1068c0.20295 0.94861 1.9429 1.8664 4.279 2.2571 1.2772 0.21363 2.6484 0.29095 3.9222 0.22118zm0-0.7546c1.3713-0.17572 2.5979-0.54235 3.6553-1.0925 1.2407-0.64552 2.0467-1.4465 2.1762-2.1624 0.055829-0.30875-0.040397-0.60584-0.27429-0.84685-0.79442-0.8186-3.1834-1.2513-6.906-1.2508-2.2052 2.8209e-4 -3.7948 0.15805-5.147 0.51082-1.0166 0.26523-1.7261 0.68692-1.9671 1.1692-0.27153 0.54338 0.016714 1.2375 0.78055 1.8796 1.1797 0.99174 3.1516 1.6734 5.3413 1.8465 0.35332 0.027924 1.9992-0.009658 2.3409-0.053453zm-3.7964-0.71068c-0.064318-0.098163-0.03063-0.19112 0.10207-0.28163 0.22352-0.15246 0.50266-0.1762 0.72882-0.061976 0.22563 0.11395 0.29688 0.25728 0.18034 0.36275-0.077743 0.070357-0.1381 0.064539-0.27181-0.0262-0.069925-0.047452-0.15785-0.077515-0.22672-0.077515-0.068909 0-0.1567 0.030035-0.22657 0.077515-0.14157 0.096201-0.22634 0.098292-0.28612 0.00706zm3.2487-0.41371c-0.04727-0.072143-0.048179-0.089909-0.00825-0.16105 0.073421-0.13081 0.32064-0.23888 0.53972-0.23594 0.37264 5e-3 0.66729 0.26336 0.48672 0.42677-0.077743 0.070357-0.1381 0.06454-0.27181-0.0262-0.070461-0.047816-0.15778-0.077515-0.2279-0.077515-0.072563 0-0.15167 0.028033-0.21874 0.077515-0.13611 0.10042-0.23236 0.099271-0.29975-0.00357zm-5.6001-0.6553c-0.10665-0.10666-0.12967-0.1159-0.27854-0.11175-0.089252 0.0024867-0.21288 0.014276-0.27473 0.026201-0.09485 0.018288-0.11996 0.010954-0.16046-0.046857-0.069424-0.099118-0.024768-0.18897 0.13452-0.27067 0.25785-0.13224 0.5452-0.079066 0.77627 0.14366 0.16737 0.16133 0.18437 0.22006 0.090754 0.31368-0.089671 0.089672-0.15651 0.077072-0.28782-0.05426zm8.8826-0.32401c-0.02046-0.020464-0.03721-0.070632-0.03721-0.11149 0-0.19831 0.32744-0.42023 0.6183-0.41905 0.29384 0.00119 0.50049 0.13402 0.45102 0.2899-0.03426 0.10795-0.12677 0.13268-0.27894 0.07456-0.18254-0.069713-0.31757-0.041156-0.44963 0.095091-0.10902 0.11248-0.23305 0.14148-0.30354 0.070991zm-7.2545-0.034117c-0.10695-0.048239-0.12219-0.1644-0.034124-0.26004 0.2373-0.25774 0.74696-0.25774 0.98427 0 0.085068 0.092392 0.073064 0.21578-0.026158 0.26888-0.047809 0.025587-0.098777 0.0122-0.24462-0.064252-0.20032-0.10501-0.30811-0.10511-0.44469-4.183e-4 -0.10335 0.079216-0.15538 0.091597-0.23467 0.055833zm3.0067-1.1441c-0.061698-0.061698-0.042088-0.17827 0.043302-0.25741 0.21429-0.19859 0.61873-0.22698 0.85442-0.059962 0.15477 0.10967 0.1946 0.19774 0.13069 0.28899-0.058395 0.083371-0.17498 0.084067-0.28637 0.00171-0.11589-0.085681-0.31079-0.086447-0.44781-0.00176-0.11843 0.073191-0.23792 0.08474-0.29423 0.028436zm3.4532-0.35258c-0.07998-0.079981-0.05933-0.18808 0.05218-0.27313 0.23562-0.17972 0.5401-0.20323 0.79999-0.061784 0.19684 0.10713 0.24559 0.19329 0.17249 0.30486-0.06348 0.096878-0.1674 0.10196-0.27963 0.013679-0.13543-0.10653-0.30659-0.11278-0.45208-0.016497-0.14106 0.093347-0.22326 0.10257-0.29296 0.03288zm-8.2786-0.093018c-0.1166-0.1166-0.026516-0.26631 0.23033-0.38275 0.22805-0.10339 0.44331-0.077603 0.68681 0.082275 0.1233 0.080959 0.16423 0.17231 0.11686 0.26083-0.053765 0.10046-0.1725 0.10446-0.30825 0.010387-0.10225-0.070862-0.14597-0.08256-0.26033-0.06967-0.075594 0.0085205-0.17525 0.045228-0.22145 0.081573-0.099762 0.078473-0.17733 0.083992-0.24396 0.017358zm3.8901-0.13527c-0.049771-0.092998-0.039048-0.13881 0.05317-0.22714 0.25456-0.24382 0.73312-0.23397 0.96701 0.01992 0.16644 0.18068-0.067903 0.3631-0.26614 0.20717-0.10995-0.086489-0.3448-0.087519-0.45353-0.0019894-0.10257 0.08068-0.25786 0.081734-0.30051 0.0020384zm3.4609-0.58584c-0.06676-0.073765-0.06474-0.1039 0.01363-0.20353 0.20928-0.26605 0.72501-0.28589 0.97346-0.037438 0.12704 0.12704 0.08975 0.29767-0.06505 0.29767-0.03765 0-0.13978-0.037007-0.22696-0.082238-0.14287-0.074124-0.17032-0.078698-0.27824-0.046366-0.06585 0.019729-0.13704 0.056736-0.15821 0.082237-0.05304 0.063914-0.19662 0.058176-0.25862-0.010336zm-5.8911-0.12402c-0.11311-0.12499-0.033946-0.26994 0.20723-0.37945 0.23156-0.10514 0.58563-0.051423 0.77184 0.1171 0.071155 0.064395 0.070183 0.20252-0.00189 0.26774-0.077552 0.070183-0.1213 0.0648-0.24593-0.03026-0.14614-0.11147-0.30195-0.11249-0.46733-0.0030484-0.15051 0.099605-0.19481 0.10429-0.26392 0.027921z" fill="#4b1a00" stroke-width=".031006"/>
 </g>
</svg>
