<?xml version="1.0" encoding="UTF-8" standalone="no"?>
<svg
   width="25"
   height="25"
   version="1.1"
   viewBox="0 0 6.6146 6.6146"
   id="svg4"
   sodipodi:docname="pinterest - Copy.svg"
   inkscape:version="1.1.1 (3bf5ae0d25, 2021-09-20)"
   xmlns:inkscape="http://www.inkscape.org/namespaces/inkscape"
   xmlns:sodipodi="http://sodipodi.sourceforge.net/DTD/sodipodi-0.dtd"
   xmlns="http://www.w3.org/2000/svg"
   xmlns:svg="http://www.w3.org/2000/svg">
  <defs
     id="defs8" />
  <sodipodi:namedview
     id="namedview6"
     pagecolor="#ffffff"
     bordercolor="#111111"
     borderopacity="1"
     inkscape:pageshadow="0"
     inkscape:pageopacity="0"
     inkscape:pagecheckerboard="1"
     showgrid="false"
     inkscape:zoom="11.313709"
     inkscape:cx="20.992232"
     inkscape:cy="8.4410868"
     inkscape:window-width="1024"
     inkscape:window-height="705"
     inkscape:window-x="-8"
     inkscape:window-y="-8"
     inkscape:window-maximized="1"
     inkscape:current-layer="svg4" />
  <path
     id="path108"
     style="fill:#b39775;fill-opacity:1;stroke-width:0;stroke-linecap:round;stroke-linejoin:round"
     d="M 12.5 0 A 12.5 12.5 0 0 0 0 12.5 A 12.5 12.5 0 0 0 12.5 25 A 12.5 12.5 0 0 0 25 12.5 A 12.5 12.5 0 0 0 12.5 0 z M 12.830078 5.9296875 C 13.194293 5.9324806 13.552257 5.9571205 13.791016 6.0019531 C 15.687244 6.3579535 17.066697 7.6049955 17.511719 9.3671875 C 17.575506 9.6197651 17.582606 9.7217139 17.582031 10.367188 C 17.581497 10.966821 17.570281 11.148085 17.513672 11.460938 C 17.093589 13.783124 15.757263 15.225304 13.849609 15.416016 C 13.345723 15.46639 12.823924 15.374322 12.416016 15.166016 C 12.204401 15.05795 11.914377 14.824068 11.794922 14.664062 L 11.677734 14.505859 L 11.652344 14.607422 C 11.46604 15.368338 11.083156 16.790116 11.021484 16.953125 C 10.828829 17.462346 10.475519 18.090831 10.027344 18.71875 C 9.8280157 18.998022 9.7602949 19.070312 9.7011719 19.070312 C 9.6602359 19.070312 9.6220012 19.052738 9.6152344 19.03125 C 9.5342518 18.774081 9.4665453 17.567683 9.5039062 17.044922 C 9.5448509 16.472026 9.5484769 16.458975 10.033203 14.414062 C 10.120797 14.044531 10.282881 13.356225 10.394531 12.884766 L 10.597656 12.027344 L 10.507812 11.744141 C 10.283472 11.042152 10.313206 10.343054 10.59375 9.7460938 C 10.865013 9.1688827 11.378233 8.8180879 11.892578 8.859375 C 12.540072 8.9113494 12.915298 9.4592696 12.820312 10.216797 C 12.779648 10.541103 12.712069 10.807586 12.427734 11.757812 C 12.301731 12.178906 12.181372 12.61272 12.160156 12.720703 C 12.037537 13.344817 12.403718 13.924521 13.023438 14.085938 C 13.83686 14.297807 14.684226 13.770956 15.208984 12.726562 C 15.726878 11.69583 15.914044 10.018743 15.613281 9.1171875 C 15.46412 8.6700671 15.149115 8.1916221 14.822266 7.9179688 C 14.449908 7.6062126 13.907594 7.3673142 13.367188 7.2753906 C 12.973841 7.2084818 12.245176 7.2064158 11.878906 7.2714844 C 10.629477 7.4934475 9.6424724 8.2737195 9.1699219 9.4140625 C 8.8610646 10.159388 8.8031351 11.050588 9.0234375 11.667969 C 9.1184848 11.934334 9.1810965 12.047447 9.3730469 12.294922 C 9.5406345 12.510986 9.5437756 12.561849 9.4140625 13.064453 C 9.274483 13.605301 9.2032075 13.647527 8.7871094 13.441406 C 8.5743252 13.336 8.4649578 13.253968 8.25 13.039062 C 8.0123624 12.801482 7.9587013 12.726538 7.8046875 12.412109 C 7.2189533 11.216295 7.3029924 9.7098955 8.0253906 8.4609375 C 8.8041346 7.1145617 10.127144 6.255547 11.835938 5.9863281 C 12.096178 5.9453279 12.465864 5.9268944 12.830078 5.9296875 z "
     transform="scale(0.264584)" />
</svg>
