<svg width="25" height="25" version="1.1" viewBox="0 0 6.6146 6.6146" xmlns="http://www.w3.org/2000/svg">
 <path transform="scale(.26458)" d="m12.5 0a12.5 12.5 0 0 0-12.5 12.5 12.5 12.5 0 0 0 12.5 12.5 12.5 12.5 0 0 0 12.5-12.5 12.5 12.5 0 0 0-12.5-12.5zm2.6289 6.9121c0.58725 0.0010303 1.1814 0.19434 1.7148 0.58594 0.19276 0.14151 0.4158 0.25781 0.49414 0.25781 0.15919 0 1.0887-0.30503 1.3398-0.43945 0.089235-0.047754 0.18049-0.06755 0.20312-0.044922 0.074986 0.074997-0.35232 0.66248-0.73828 1.0156l-0.38086 0.34766h0.2207c0.20848-5.82e-5 0.80278-0.13915 1.082-0.25391 0.2592-0.10651 0.1144 0.099996-0.49414 0.70312l-0.62305 0.61719v0.52148c-0.001501 1.0411-0.36 2.4363-0.90039 3.5137-1.0306 2.0548-2.884 3.5561-5.123 4.1465-0.89779 0.23674-2.7815 0.27795-3.6641 0.080079-0.77926-0.17472-1.2898-0.35413-1.9395-0.68164l-0.50781-0.25586 0.64062-0.052735c0.79604-0.06459 1.5987-0.26604 2.1953-0.55078 0.47233-0.22542 1.1146-0.65496 1.0605-0.70898-0.016924-0.01692-0.20374-0.063261-0.41602-0.10352-0.9127-0.17309-1.8558-0.92571-2.0918-1.6699-0.051122-0.16122-0.039962-0.16602 0.49805-0.16602 0.30306 0 0.5681-0.029274 0.58984-0.064454 0.021732-0.035187-0.11573-0.12141-0.30664-0.19336-0.91773-0.34588-1.6707-1.1974-1.8164-2.0566-0.027024-0.15922-0.063402-0.34579-0.082031-0.41406-0.030954-0.11346 5.454e-4 -0.11268 0.37109 0.017578 0.36593 0.12861 0.84961 0.19226 0.84961 0.11133 0-0.017499-0.16274-0.19846-0.36133-0.40234-0.19859-0.20391-0.45275-0.56222-0.56641-0.79492-0.18205-0.37275-0.20807-0.50494-0.20898-1.1191-7.389e-4 -0.49897 0.037797-0.79479 0.13281-1.041l0.13281-0.34375 0.5957 0.58594c1.3154 1.2944 3.0352 2.1115 4.8516 2.3047l0.50391 0.052735-0.033204-0.35742c-0.083262-0.90102 0.26836-1.8329 0.9082-2.4082 0.54788-0.49259 1.2036-0.73945 1.8691-0.73828z" fill="#b39775" stroke-linejoin="round" stroke-width="6.5"/>
</svg>
